<?xml version="1.0" encoding="UTF-8" standalone="no"?>
<!DOCTYPE svg PUBLIC "-//W3C//DTD SVG 1.0//EN" "http://www.w3.org/TR/2001/PR-SVG-20010719/DTD/svg10.dtd">
<svg width="12cm" height="19cm" viewBox="46 48 223 364" xmlns="http://www.w3.org/2000/svg" xmlns:xlink="http://www.w3.org/1999/xlink">
  <g>
    <line style="fill: none; fill-opacity:0; stroke-width: 2; stroke: #000000" x1="64.3558" y1="50.2142" x2="64.3558" y2="90.2142"/>
    <line style="fill: none; fill-opacity:0; stroke-width: 2; stroke: #000000" x1="188.356" y1="50.2142" x2="188.356" y2="90.2142"/>
    <polygon style="fill: #000000" points="194.356,90.2142 188.356,90.2142 188.356,84.2142 "/>
    <polygon style="fill: #000000" points="58.3558,90.2142 64.3558,90.2142 64.3558,84.2142 "/>
    <text font-size="6.77333" style="fill: #000000;text-anchor:middle;font-family:sans-serif;font-style:normal;font-weight:normal" x="248.289" y="88.9975">
      <tspan x="248.289" y="88.9975"></tspan>
    </text>
  </g>
  <g>
    <line style="fill: none; fill-opacity:0; stroke-width: 2; stroke: #000000" x1="76.3558" y1="49.8116" x2="76.3558" y2="130.214"/>
    <line style="fill: none; fill-opacity:0; stroke-width: 2; stroke: #000000" x1="176.356" y1="49.8116" x2="176.356" y2="130.214"/>
    <polygon style="fill: #000000" points="182.356,130.214 176.356,130.214 176.356,124.214 "/>
    <polygon style="fill: #000000" points="70.3558,130.214 76.3558,130.214 76.3558,124.214 "/>
    <text font-size="6.77333" style="fill: #000000;text-anchor:middle;font-family:sans-serif;font-style:normal;font-weight:normal" x="224.689" y="125.631">
      <tspan x="224.689" y="125.631"></tspan>
    </text>
  </g>
  <g>
    <line style="fill: none; fill-opacity:0; stroke-width: 2; stroke: #000000" x1="88.3558" y1="50.2142" x2="88.3558" y2="210.214"/>
    <line style="fill: none; fill-opacity:0; stroke-width: 2; stroke: #000000" x1="164.356" y1="50.2142" x2="164.356" y2="210.214"/>
    <polygon style="fill: #000000" points="170.356,210.214 164.356,210.214 164.356,204.214 "/>
    <polygon style="fill: #000000" points="82.3558,210.214 88.3558,210.214 88.3558,204.214 "/>
    <text font-size="6.77333" style="fill: #000000;text-anchor:middle;font-family:sans-serif;font-style:normal;font-weight:normal" x="201.089" y="198.998">
      <tspan x="201.089" y="198.998"></tspan>
    </text>
  </g>
  <g>
    <line style="fill: none; fill-opacity:0; stroke-width: 2; stroke: #000000" x1="100.356" y1="50.6546" x2="100.356" y2="310.655"/>
    <line style="fill: none; fill-opacity:0; stroke-width: 2; stroke: #000000" x1="152.356" y1="50.6546" x2="152.356" y2="310.655"/>
    <polygon style="fill: #000000" points="158.356,310.655 152.356,310.655 152.356,304.655 "/>
    <polygon style="fill: #000000" points="94.3558,310.655 100.356,310.655 100.356,304.655 "/>
    <text font-size="6.77333" style="fill: #000000;text-anchor:middle;font-family:sans-serif;font-style:normal;font-weight:normal" x="177.489" y="291.105">
      <tspan x="177.489" y="291.105"></tspan>
    </text>
  </g>
  <g>
    <path style="fill: none; fill-opacity:0; stroke-width: 0.8; stroke-dasharray: 1; stroke: #bbbbbb" d="M 56.3558 50.2142 L 56.3558,90.2142 L 64.5911,90.2142"/>
    <path style="fill: none; fill-opacity:0; stroke-width: 0.8; stroke-dasharray: 1; stroke: #bbbbbb" d="M 188.121 90.2142 L 196.356,90.2142 L 196.356,50.2142"/>
    <text font-size="6.77333" style="fill: #000000;text-anchor:start;font-family:sans-serif;font-style:normal;font-weight:normal" x="200.415" y="84.7642">
      <tspan x="200.415" y="84.7642">26" 501M</tspan>
      <tspan x="200.415" y="93.2309"> x 18"5/8 # 0-500M</tspan>
    </text>
  </g>
  <g>
    <path style="fill: none; fill-opacity:0; stroke-width: 0.8; stroke-dasharray: 1; stroke: #bbbbbb" d="M 70.6892 90.2142 L 70.6892,130.214 L 77.2774,130.214"/>
    <path style="fill: none; fill-opacity:0; stroke-width: 0.8; stroke-dasharray: 1; stroke: #bbbbbb" d="M 176.101 130.214 L 182.689,130.214 L 182.689,90.2142"/>
    <text font-size="6.77333" style="fill: #000000;text-anchor:start;font-family:sans-serif;font-style:normal;font-weight:normal" x="186.336" y="124.764">
      <tspan x="186.336" y="124.764">16" 1201M</tspan>
      <tspan x="186.336" y="133.231"> x 13"3/8 0-1200M</tspan>
    </text>
  </g>
  <g>
    <path style="fill: none; fill-opacity:0; stroke-width: 0.8; stroke-dasharray: 1; stroke: #bbbbbb" d="M 82.4558 130.014 L 82.4558,210.014 L 87.6323,210.014"/>
    <path style="fill: none; fill-opacity:0; stroke-width: 0.8; stroke-dasharray: 1; stroke: #bbbbbb" d="M 165.279 210.014 L 170.456,210.014 L 170.456,130.014"/>
    <text font-size="6.77333" style="fill: #000000;text-anchor:start;font-family:sans-serif;font-style:normal;font-weight:normal" x="173.75" y="201.231">
      <tspan x="173.75" y="201.231">12"1/4 2401M</tspan>
      <tspan x="173.75" y="209.698"> x 9"5/8 0-2400M</tspan>
    </text>
  </g>
  <g>
    <path style="fill: none; fill-opacity:0; stroke-width: 0.8; stroke-dasharray: 1; stroke: #bbbbbb" d="M 93.5058 210.156 L 93.5058,310.723 L 97.3352,310.723"/>
    <path style="fill: none; fill-opacity:0; stroke-width: 0.8; stroke-dasharray: 1; stroke: #bbbbbb" d="M 154.776 310.723 L 158.606,310.723 L 158.606,210.156"/>
    <text font-size="6.77333" style="fill: #000000;text-anchor:start;font-family:sans-serif;font-style:normal;font-weight:normal" x="161.563" y="300.225">
      <tspan x="161.563" y="300.225">8"1/2 3101M</tspan>
      <tspan x="161.563" y="308.692"> x 7" #32 0-3100M </tspan>
    </text>
  </g>
  <g>
    <path style="fill: none; fill-opacity:0; stroke-width: 0.8; stroke-dasharray: 1; stroke: #bbbbbb" d="M 104.472 310.722 L 104.472,410.822 L 107.067,410.822"/>
    <path style="fill: none; fill-opacity:0; stroke-width: 0.8; stroke-dasharray: 1; stroke: #bbbbbb" d="M 145.978 410.822 L 148.572,410.822 L 148.572,310.722"/>
    <text font-size="6.77333" style="fill: #000000;text-anchor:start;font-family:sans-serif;font-style:normal;font-weight:normal" x="151.221" y="400.364">
      <tspan x="151.221" y="400.364">6" 3200M (TARGET TD:3301M)</tspan>
      <tspan x="151.221" y="408.831">(x 4"1/2 #13.5 2900-3300M)</tspan>
    </text>
  </g>
  <line style="fill: none; fill-opacity:0; stroke-width: 2; stroke: #000000" x1="47.133" y1="49.6228" x2="205.902" y2="49.6924"/>
</svg>
